<svg width="30" height="30" viewBox="0 0 27 22" fill="none" xmlns="http://www.w3.org/2000/svg">
<path fill-rule="evenodd" clip-rule="evenodd" d="M8.99946 0.375C10.187 0.375 11.237 1.14125 11.6007 2.27125L17.0345 19.1763C17.1822 19.6484 17.1373 20.1599 16.9096 20.5991C16.6819 21.0384 16.2898 21.3698 15.8188 21.5212C15.3478 21.6726 14.836 21.6317 14.395 21.4074C13.954 21.1831 13.6195 20.7936 13.4645 20.3237L11.8732 15.375H6.12571L4.53446 20.3237C4.37942 20.7936 4.04495 21.1831 3.60395 21.4074C3.16295 21.6317 2.65117 21.6726 2.18014 21.5212C1.70911 21.3698 1.31701 21.0384 1.0893 20.5991C0.861586 20.1599 0.816715 19.6484 0.964464 19.1763L6.39821 2.27125C6.57519 1.72073 6.92225 1.24054 7.38946 0.899788C7.85667 0.559038 8.42119 0.375295 8.99946 0.375ZM24.6245 11C25.1217 11 25.5987 11.1975 25.9503 11.5492C26.3019 11.9008 26.4995 12.3777 26.4995 12.875V19.125C26.4994 19.4768 26.4004 19.8215 26.2137 20.1197C26.027 20.4178 25.7602 20.6575 25.4438 20.8112C25.1273 20.9649 24.774 21.0265 24.4242 20.9889C24.0744 20.9514 23.7423 20.8162 23.4657 20.5988C22.7053 20.9233 21.8763 21.0541 21.0529 20.9797C20.2295 20.9052 19.4374 20.6277 18.7475 20.1721C18.0577 19.7164 17.4916 19.0968 17.0999 18.3687C16.7082 17.6406 16.5032 16.8268 16.5032 16C16.5032 15.1732 16.7082 14.3594 17.0999 13.6313C17.4916 12.9032 18.0577 12.2836 18.7475 11.8279C19.4374 11.3723 20.2295 11.0948 21.0529 11.0203C21.8763 10.9459 22.7053 11.0767 23.4657 11.4012C23.7845 11.15 24.187 11 24.6245 11ZM21.4995 14.75C21.1679 14.75 20.85 14.8817 20.6156 15.1161C20.3812 15.3505 20.2495 15.6685 20.2495 16C20.2495 16.3315 20.3812 16.6495 20.6156 16.8839C20.85 17.1183 21.1679 17.25 21.4995 17.25C21.831 17.25 22.1489 17.1183 22.3833 16.8839C22.6178 16.6495 22.7495 16.3315 22.7495 16C22.7495 15.6685 22.6178 15.3505 22.3833 15.1161C22.1489 14.8817 21.831 14.75 21.4995 14.75ZM8.99946 6.4325L7.33071 11.625H10.6682L8.99946 6.4325Z" fill="#9BA2B1" fill-opacity="0.6"/>
</svg>
