<svg width="24" height="25" viewBox="0 0 24 25" fill="none" xmlns="http://www.w3.org/2000/svg">
<g clip-path="url(#clip0_180_3790)">
<path fill-rule="evenodd" clip-rule="evenodd" d="M5.5 10.084C5.5 9.49304 5.6164 8.90787 5.84254 8.36191C6.06869 7.81594 6.40016 7.31987 6.81802 6.902C7.23589 6.48414 7.73196 6.15267 8.27793 5.92653C8.82389 5.70038 9.40905 5.58398 10 5.58398C10.591 5.58398 11.1761 5.70038 11.7221 5.92653C12.268 6.15267 12.7641 6.48414 13.182 6.902C13.5998 7.31987 13.9313 7.81594 14.1575 8.36191C14.3836 8.90787 14.5 9.49304 14.5 10.084C14.5 11.2775 14.0259 12.4221 13.182 13.266C12.3381 14.1099 11.1935 14.584 10 14.584C8.80653 14.584 7.66194 14.1099 6.81802 13.266C5.97411 12.4221 5.5 11.2775 5.5 10.084ZM10 2.58398C8.8305 2.58411 7.67723 2.85773 6.63232 3.38298C5.58741 3.90824 4.67982 4.67058 3.98203 5.60911C3.28425 6.54764 2.81562 7.63634 2.61357 8.78826C2.41152 9.94017 2.48166 11.1234 2.81838 12.2434C3.1551 13.3633 3.74906 14.3891 4.55284 15.2386C5.35661 16.0881 6.34791 16.7379 7.44756 17.136C8.54721 17.5341 9.72472 17.6696 10.886 17.5316C12.0474 17.3935 13.1603 16.9858 14.136 16.341L18.939 21.145C19.2204 21.4264 19.602 21.5845 20 21.5845C20.398 21.5845 20.7796 21.4264 21.061 21.145C21.3424 20.8636 21.5005 20.4819 21.5005 20.084C21.5005 19.686 21.3424 19.3044 21.061 19.023L16.257 14.22C17.0043 13.0896 17.4313 11.7779 17.4928 10.4242C17.5543 9.0705 17.2478 7.72546 16.6061 6.53199C15.9643 5.33853 15.0112 4.34123 13.848 3.64607C12.6849 2.95092 11.3551 2.58389 10 2.58398Z" fill="white" fill-opacity="0.8"/>
</g>
<defs>
<clipPath id="clip0_180_3790">
<rect width="24" height="24" fill="white" transform="translate(0 0.0839844)"/>
</clipPath>
</defs>
</svg>
