<svg width="31" height="31" viewBox="0 0 31 31" fill="none" xmlns="http://www.w3.org/2000/svg">
<g clip-path="url(#clip0_180_3778)">
<path d="M15.7114 3.771C18.427 3.771 20.6284 5.9724 20.6284 8.68799C20.6284 10.8677 19.2097 12.7142 17.2456 13.3589C17.8358 14.0155 18.3129 14.7745 18.6519 15.605C19.4655 15.2236 20.3735 15.0103 21.3315 15.0103C24.8229 15.0103 27.6536 17.8402 27.6538 21.3315C27.6538 24.8231 24.8231 27.6538 21.3315 27.6538C19.1112 27.6537 17.1594 26.5083 16.0317 24.7769C14.758 25.7018 13.1921 26.2485 11.4976 26.2485C7.23014 26.2485 3.771 22.7894 3.771 18.522C3.77107 14.3303 7.10834 10.9201 11.271 10.8003C10.966 10.1603 10.7944 9.44421 10.7944 8.68799C10.7945 5.97245 12.9959 3.77107 15.7114 3.771Z" fill="white"/>
</g>
<defs>
<clipPath id="clip0_180_3778">
<rect width="30.168" height="30.168" fill="white"/>
</clipPath>
</defs>
</svg>
