<svg width="30" height="30" viewBox="0 0 30 30" fill="none" xmlns="http://www.w3.org/2000/svg">
<g clip-path="url(#clip0_643_1197)">
<path fill-rule="evenodd" clip-rule="evenodd" d="M9.99946 4.375C11.187 4.375 12.237 5.14125 12.6007 6.27125L18.0345 23.1763C18.1822 23.6484 18.1373 24.1599 17.9096 24.5991C17.6819 25.0384 17.2898 25.3698 16.8188 25.5212C16.3478 25.6726 15.836 25.6317 15.395 25.4074C14.954 25.1831 14.6195 24.7936 14.4645 24.3237L12.8732 19.375H7.12571L5.53446 24.3237C5.37942 24.7936 5.04495 25.1831 4.60395 25.4074C4.16295 25.6317 3.65117 25.6726 3.18014 25.5212C2.70911 25.3698 2.31701 25.0384 2.0893 24.5991C1.86159 24.1599 1.81671 23.6484 1.96446 23.1763L7.39821 6.27125C7.57519 5.72073 7.92225 5.24054 8.38946 4.89979C8.85667 4.55904 9.42119 4.37529 9.99946 4.375ZM25.6245 15C26.1217 15 26.5987 15.1975 26.9503 15.5492C27.3019 15.9008 27.4995 16.3777 27.4995 16.875V23.125C27.4994 23.4768 27.4004 23.8215 27.2137 24.1197C27.027 24.4178 26.7602 24.6575 26.4438 24.8112C26.1273 24.9649 25.774 25.0265 25.4242 24.9889C25.0744 24.9514 24.7423 24.8162 24.4657 24.5988C23.7053 24.9233 22.8763 25.0541 22.0529 24.9797C21.2295 24.9052 20.4374 24.6277 19.7475 24.1721C19.0577 23.7164 18.4916 23.0968 18.0999 22.3687C17.7082 21.6406 17.5032 20.8268 17.5032 20C17.5032 19.1732 17.7082 18.3594 18.0999 17.6313C18.4916 16.9032 19.0577 16.2836 19.7475 15.8279C20.4374 15.3723 21.2295 15.0948 22.0529 15.0203C22.8763 14.9459 23.7053 15.0767 24.4657 15.4012C24.7845 15.15 25.187 15 25.6245 15ZM22.4995 18.75C22.1679 18.75 21.85 18.8817 21.6156 19.1161C21.3812 19.3505 21.2495 19.6685 21.2495 20C21.2495 20.3315 21.3812 20.6495 21.6156 20.8839C21.85 21.1183 22.1679 21.25 22.4995 21.25C22.831 21.25 23.1489 21.1183 23.3833 20.8839C23.6178 20.6495 23.7495 20.3315 23.7495 20C23.7495 19.6685 23.6178 19.3505 23.3833 19.1161C23.1489 18.8817 22.831 18.75 22.4995 18.75ZM9.99946 10.4325L8.33071 15.625H11.6682L9.99946 10.4325Z" fill="#C3C7D0"/>
</g>
<defs>
<clipPath id="clip0_643_1197">
<rect width="30" height="30" fill="white"/>
</clipPath>
</defs>
</svg>
