<svg width="30" height="30" viewBox="0 0 30 30" fill="none" xmlns="http://www.w3.org/2000/svg">
<rect width="30" height="30" fill="#ACACAC"/>
<path d="M-4518 -915C-4518 -942.614 -4495.61 -965 -4468 -965H3206C3233.61 -965 3256 -942.614 3256 -915V333C3256 360.614 3233.61 383 3206 383H-4468C-4495.61 383 -4518 360.614 -4518 333V-915Z" fill="white" fill-opacity="0.3"/>
<path d="M-4468 -965V-964H3206V-965V-966H-4468V-965ZM3256 -915H3255V333H3256H3257V-915H3256ZM3206 383V382H-4468V383V384H3206V383ZM-4518 333H-4517V-915H-4518H-4519V333H-4518ZM-4468 383V382C-4495.06 382 -4517 360.062 -4517 333H-4518H-4519C-4519 361.167 -4496.17 384 -4468 384V383ZM3256 333H3255C3255 360.062 3233.06 382 3206 382V383V384C3234.17 384 3257 361.167 3257 333H3256ZM3206 -965V-964C3233.06 -964 3255 -942.062 3255 -915H3256H3257C3257 -943.167 3234.17 -966 3206 -966V-965ZM-4468 -965V-966C-4496.17 -966 -4519 -943.167 -4519 -915H-4518H-4517C-4517 -942.062 -4495.06 -964 -4468 -964V-965Z" fill="black" fill-opacity="0.1"/>
<rect width="390" height="844" transform="translate(-105 -738)" fill="white"/>
<g clip-path="url(#clip0_74_1653)">
<path d="M25.0002 3.75C25.6633 3.75 26.2992 4.01339 26.768 4.48223C27.2369 4.95107 27.5002 5.58696 27.5002 6.25V23.75C27.5002 24.413 27.2369 25.0489 26.768 25.5178C26.2992 25.9866 25.6633 26.25 25.0002 26.25H5.00024C4.3372 26.25 3.70132 25.9866 3.23248 25.5178C2.76364 25.0489 2.50024 24.413 2.50024 23.75V6.25C2.50024 5.58696 2.76364 4.95107 3.23248 4.48223C3.70132 4.01339 4.3372 3.75 5.00024 3.75H25.0002ZM25.0002 6.25H5.00024V18.875L11.244 12.6325C11.3891 12.4874 11.5614 12.3722 11.751 12.2937C11.9406 12.2151 12.1438 12.1747 12.349 12.1747C12.5542 12.1747 12.7574 12.2151 12.947 12.2937C13.1366 12.3722 13.3089 12.4874 13.454 12.6325L18.5352 17.715L20.0827 16.1675C20.2278 16.0224 20.4001 15.9072 20.5897 15.8287C20.7793 15.7501 20.9825 15.7097 21.1877 15.7097C21.393 15.7097 21.5962 15.7501 21.7858 15.8287C21.9754 15.9072 22.1476 16.0224 22.2927 16.1675L25.0002 18.8763V6.25ZM19.3752 8.75C19.8725 8.75 20.3494 8.94754 20.7011 9.29918C21.0527 9.65081 21.2502 10.1277 21.2502 10.625C21.2502 11.1223 21.0527 11.5992 20.7011 11.9508C20.3494 12.3025 19.8725 12.5 19.3752 12.5C18.878 12.5 18.401 12.3025 18.0494 11.9508C17.6978 11.5992 17.5002 11.1223 17.5002 10.625C17.5002 10.1277 17.6978 9.65081 18.0494 9.29918C18.401 8.94754 18.878 8.75 19.3752 8.75Z" fill="#9BA2B1" fill-opacity="0.6"/>
</g>
<defs>
<clipPath id="clip0_74_1653">
<rect width="30" height="30" fill="white"/>
</clipPath>
</defs>
</svg>
