<svg width="20" height="20" viewBox="0 0 20 20" fill="none" xmlns="http://www.w3.org/2000/svg">
<path fill-rule="evenodd" clip-rule="evenodd" d="M4.58333 8.33337C4.58333 7.84092 4.68032 7.35328 4.86878 6.89831C5.05723 6.44334 5.33346 6.02994 5.68167 5.68172C6.02989 5.3335 6.44329 5.05728 6.89826 4.86883C7.35323 4.68037 7.84087 4.58337 8.33333 4.58337C8.82578 4.58337 9.31342 4.68037 9.76839 4.86883C10.2234 5.05728 10.6368 5.3335 10.985 5.68172C11.3332 6.02994 11.6094 6.44334 11.7979 6.89831C11.9863 7.35328 12.0833 7.84092 12.0833 8.33337C12.0833 9.32794 11.6882 10.2818 10.985 10.985C10.2817 11.6883 9.32789 12.0834 8.33333 12.0834C7.33876 12.0834 6.38494 11.6883 5.68167 10.985C4.97841 10.2818 4.58333 9.32794 4.58333 8.33337ZM8.33333 2.08337C7.35874 2.08348 6.39768 2.31149 5.52693 2.74921C4.65617 3.18692 3.89984 3.8222 3.31835 4.60431C2.73686 5.38642 2.34634 6.29367 2.17796 7.2536C2.00959 8.21353 2.06804 9.19953 2.34864 10.1328C2.62924 11.0662 3.12421 11.9209 3.79402 12.6289C4.46383 13.3368 5.28992 13.8783 6.20629 14.2101C7.12266 14.5418 8.10393 14.6547 9.0717 14.5397C10.0395 14.4246 10.9669 14.0849 11.78 13.5475L15.7825 17.5509C16.017 17.7854 16.335 17.9171 16.6667 17.9171C16.9983 17.9171 17.3163 17.7854 17.5508 17.5509C17.7853 17.3164 17.9171 16.9983 17.9171 16.6667C17.9171 16.3351 17.7853 16.017 17.5508 15.7825L13.5475 11.78C14.1702 10.838 14.5261 9.74493 14.5773 8.61687C14.6285 7.4888 14.3732 6.36794 13.8384 5.37338C13.3036 4.37883 12.5093 3.54774 11.54 2.96845C10.5707 2.38915 9.46255 2.0833 8.33333 2.08337Z" fill="#6A717B"/>
</svg>
