<svg width="24" height="25" viewBox="0 0 24 25" fill="none" xmlns="http://www.w3.org/2000/svg">
<g clip-path="url(#clip0_207_5550)">
<path d="M12 2.08398C10.1435 2.08398 8.36301 2.82148 7.05026 4.13424C5.7375 5.44699 5.00001 7.22747 5.00001 9.08398V12.612C5.00015 12.7671 4.9642 12.9201 4.89501 13.059L3.17801 16.492C3.09413 16.6597 3.05453 16.8461 3.06296 17.0334C3.07138 17.2207 3.12756 17.4028 3.22615 17.5623C3.32474 17.7218 3.46248 17.8535 3.62627 17.9448C3.79007 18.0361 3.97448 18.084 4.16201 18.084H19.838C20.0255 18.084 20.2099 18.0361 20.3737 17.9448C20.5375 17.8535 20.6753 17.7218 20.7739 17.5623C20.8725 17.4028 20.9286 17.2207 20.9371 17.0334C20.9455 16.8461 20.9059 16.6597 20.822 16.492L19.106 13.059C19.0365 12.9202 19.0002 12.7672 19 12.612V9.08398C19 7.22747 18.2625 5.44699 16.9498 4.13424C15.637 2.82148 13.8565 2.08398 12 2.08398ZM12 21.084C11.3794 21.0842 10.774 20.8919 10.2672 20.5337C9.76033 20.1756 9.37702 19.6691 9.17001 19.084H14.83C14.623 19.6691 14.2397 20.1756 13.7329 20.5337C13.226 20.8919 12.6206 21.0842 12 21.084Z" fill="#391BE2" fill-opacity="0.2"/>
</g>
<defs>
<clipPath id="clip0_207_5550">
<rect width="24" height="24" fill="white" transform="translate(0 0.0839844)"/>
</clipPath>
</defs>
</svg>
