<svg width="20" height="20" viewBox="0 0 20 20" fill="none" xmlns="http://www.w3.org/2000/svg">
<g clip-path="url(#clip0_242_23)">
<path d="M8 1.66667C6.4529 1.66667 4.96916 2.28125 3.87519 3.37522C2.78123 4.46918 2.16665 5.95291 2.16665 7.5V10.44C2.16677 10.5693 2.13681 10.6968 2.07915 10.8125L0.64832 13.6733C0.57842 13.8131 0.54542 13.9684 0.55244 14.1245C0.55946 14.2806 0.60628 14.4324 0.68844 14.5653C0.7706 14.6982 0.88538 14.8079 1.02187 14.884C1.15837 14.9601 1.31205 15 1.46832 15H14.5317C14.6879 15 14.8416 14.9601 14.9781 14.884C15.1146 14.8079 15.2294 14.6982 15.3115 14.5653C15.3937 14.4324 15.4405 14.2806 15.4475 14.1245C15.4545 13.9684 15.4215 13.8131 15.3517 13.6733L13.9217 10.8125C13.8637 10.6969 13.8335 10.5693 13.8333 10.44V7.5C13.8333 5.95291 13.2187 4.46918 12.1248 3.37522C11.0308 2.28125 9.5471 1.66667 8 1.66667ZM8 17.5C7.4828 17.5002 6.9783 17.34 6.5559 17.0415C6.1336 16.743 5.81416 16.3209 5.64165 15.8333H10.3583C10.1858 16.3209 9.8664 16.743 9.444 17.0415C9.0217 17.34 8.5172 17.5002 8 17.5Z" fill="white"/>
</g>
<defs>
<clipPath id="clip0_242_23">
<rect width="20" height="20" fill="white"/>
</clipPath>
</defs>
</svg>
