<svg width="20" height="20" viewBox="0 0 20 20" fill="none" xmlns="http://www.w3.org/2000/svg">
<g clip-path="url(#clip0_242_1493)">
<path d="M9.99998 1.66663C8.45289 1.66663 6.96916 2.28121 5.87519 3.37517C4.78123 4.46913 4.16665 5.95286 4.16665 7.49996V10.44C4.16677 10.5692 4.13681 10.6968 4.07915 10.8125L2.64832 13.6733C2.57842 13.8131 2.54542 13.9684 2.55244 14.1245C2.55946 14.2806 2.60628 14.4323 2.68844 14.5652C2.7706 14.6982 2.88538 14.8079 3.02187 14.884C3.15837 14.9601 3.31205 15 3.46832 15H16.5317C16.6879 15 16.8416 14.9601 16.9781 14.884C17.1146 14.8079 17.2294 14.6982 17.3115 14.5652C17.3937 14.4323 17.4405 14.2806 17.4475 14.1245C17.4545 13.9684 17.4215 13.8131 17.3517 13.6733L15.9217 10.8125C15.8637 10.6968 15.8335 10.5693 15.8333 10.44V7.49996C15.8333 5.95286 15.2187 4.46913 14.1248 3.37517C13.0308 2.28121 11.5471 1.66663 9.99998 1.66663ZM9.99998 17.5C9.4828 17.5001 8.97829 17.3399 8.55594 17.0414C8.13358 16.7429 7.81416 16.3209 7.64165 15.8333H12.3583C12.1858 16.3209 11.8664 16.7429 11.444 17.0414C11.0217 17.3399 10.5172 17.5001 9.99998 17.5Z" fill="#6A717B"/>
</g>
<defs>
<clipPath id="clip0_242_1493">
<rect width="20" height="20" fill="white"/>
</clipPath>
</defs>
</svg>
