<svg width="20" height="20" viewBox="0 0 20 20" fill="none" xmlns="http://www.w3.org/2000/svg">
<g clip-path="url(#clip0_242_19)">
<path fill-rule="evenodd" clip-rule="evenodd" d="M4.58333 8.33333C4.58333 7.84087 4.68032 7.35324 4.86878 6.89827C5.05723 6.44329 5.33346 6.0299 5.68167 5.68168C6.02989 5.33346 6.44329 5.05724 6.89826 4.86878C7.35323 4.68032 7.84087 4.58333 8.33333 4.58333C8.82578 4.58333 9.31342 4.68032 9.76839 4.86878C10.2234 5.05724 10.6368 5.33346 10.985 5.68168C11.3332 6.0299 11.6094 6.44329 11.7979 6.89827C11.9863 7.35324 12.0833 7.84087 12.0833 8.33333C12.0833 9.32789 11.6882 10.2817 10.985 10.985C10.2817 11.6882 9.32789 12.0833 8.33333 12.0833C7.33876 12.0833 6.38494 11.6882 5.68167 10.985C4.97841 10.2817 4.58333 9.32789 4.58333 8.33333ZM8.33333 2.08333C7.35874 2.08343 6.39768 2.31145 5.52693 2.74916C4.65617 3.18688 3.89984 3.82216 3.31835 4.60426C2.73686 5.38637 2.34634 6.29362 2.17796 7.25355C2.00959 8.21348 2.06804 9.19949 2.34864 10.1328C2.62924 11.0661 3.12421 11.9209 3.79402 12.6288C4.46383 13.3368 5.28992 13.8782 6.20629 14.21C7.12266 14.5418 8.10393 14.6547 9.0717 14.5396C10.0395 14.4246 10.9669 14.0848 11.78 13.5475L15.7825 17.5508C16.017 17.7853 16.335 17.9171 16.6667 17.9171C16.9983 17.9171 17.3163 17.7853 17.5508 17.5508C17.7853 17.3163 17.9171 16.9983 17.9171 16.6667C17.9171 16.335 17.7853 16.017 17.5508 15.7825L13.5475 11.78C14.1702 10.838 14.5261 9.74488 14.5773 8.61682C14.6285 7.48876 14.3732 6.36789 13.8384 5.37334C13.3036 4.37878 12.5093 3.5477 11.54 2.9684C10.5707 2.38911 9.46255 2.08325 8.33333 2.08333Z" fill="white"/>
</g>
<defs>
<clipPath id="clip0_242_19">
<rect width="20" height="20" fill="white"/>
</clipPath>
</defs>
</svg>
