<svg width="48" height="14" viewBox="0 0 48 14" fill="none" xmlns="http://www.w3.org/2000/svg">
<g clip-path="url(#clip0_242_15)">
<path d="M3.40648 -4.31817e-05C3.53093 -4.31817e-05 3.64995 0.0438675 3.76195 0.130979C3.88617 0.205586 3.98007 0.298268 4.04223 0.410113L7.32689 7.91483C7.38907 8.02666 7.47013 8.08226 7.56957 8.08231C7.66904 8.08231 7.75004 8.02664 7.81225 7.91483L11.0787 0.410113C11.1409 0.298183 11.2288 0.20561 11.3407 0.130979C11.465 0.0439761 11.589 5.67143e-05 11.7133 -4.31817e-05H14.8122C14.949 -4.31817e-05 15.0485 0.0557354 15.1107 0.167437C15.173 0.266993 15.1799 0.367523 15.1301 0.467079L9.43692 13.2537C9.3747 13.3656 9.28102 13.4651 9.15665 13.5522C9.04465 13.6269 8.92562 13.6639 8.80118 13.6639H6.31859C6.19443 13.6638 6.0702 13.6266 5.94603 13.5522C5.83411 13.4652 5.7462 13.3656 5.68399 13.2537L0.0466198 0.541135C-0.0155087 0.404327 -0.0155712 0.279381 0.0466198 0.167437C0.0964328 0.0555641 0.202805 -4.31817e-05 0.364491 -4.31817e-05H3.40648Z" fill="white"/>
<path d="M26.9497 -6.10352e-05C27.0741 -4.39494e-05 27.1793 0.0438909 27.2664 0.130961C27.3535 0.218038 27.3974 0.323311 27.3975 0.447693V2.9861C27.3975 3.11055 27.3535 3.21686 27.2664 3.30398C27.1794 3.39085 27.074 3.43498 26.9497 3.435H21.1449C21.0205 3.435 20.9141 3.47787 20.827 3.56488C20.7399 3.65199 20.696 3.75831 20.696 3.88275V4.66661C20.696 4.79089 20.7401 4.8963 20.827 4.98334C20.9141 5.07045 21.0204 5.11436 21.1449 5.11436H26.2034C26.3277 5.11447 26.4332 5.15838 26.5202 5.24538C26.6072 5.33239 26.6511 5.43786 26.6512 5.56211V8.13812C26.6512 8.26257 26.6073 8.36888 26.5202 8.45599C26.4332 8.5429 26.3276 8.5869 26.2034 8.58702H21.1449C21.0205 8.58702 20.9141 8.62988 20.827 8.7169C20.7399 8.80401 20.696 8.91032 20.696 9.03477V9.74343C20.696 9.86787 20.7399 9.97419 20.827 10.0613C20.9141 10.1484 21.0204 10.1923 21.1449 10.1923H26.9497C27.0739 10.1923 27.1794 10.2354 27.2664 10.3222C27.3535 10.4093 27.3975 10.5156 27.3975 10.6401V13.2161C27.3974 13.3404 27.3535 13.4458 27.2664 13.5328C27.1794 13.6199 27.0741 13.6638 26.9497 13.6638H17.4478C17.3235 13.6637 17.218 13.6198 17.131 13.5328C17.0441 13.4458 17.0001 13.3404 17 13.2161V0.447693C17 0.323406 17.0441 0.218 17.131 0.130961C17.218 0.0439771 17.3235 6.62817e-05 17.4478 -6.10352e-05H26.9497Z" fill="white"/>
<path fill-rule="evenodd" clip-rule="evenodd" d="M36.3149 -6.10352e-05C37.0365 -1.80301e-05 37.7024 0.12479 38.3121 0.373637C38.9217 0.610073 39.4386 0.945337 39.8616 1.3808C40.297 1.81627 40.6323 2.3331 40.8687 2.93028C41.1176 3.52761 41.2424 4.1875 41.2424 4.90928C41.2424 5.30729 41.1926 5.70528 41.0932 6.10329C41.0061 6.48901 40.8754 6.85662 40.7013 7.20502C40.527 7.55346 40.3213 7.87127 40.0849 8.15749C39.8485 8.43107 39.5813 8.66135 39.2828 8.84792C39.1832 8.92259 39.1151 9.01619 39.0777 9.12819C39.0529 9.22768 39.0772 9.32721 39.1518 9.4267C39.6246 10.0488 40.1228 10.6893 40.6454 11.3487C41.1681 12.0083 41.635 12.6127 42.0457 13.1603C42.12 13.2597 42.1387 13.3721 42.1015 13.4964C42.0641 13.608 41.9829 13.6637 41.8588 13.6638H38.3861C38.2618 13.6638 38.1251 13.6325 37.976 13.5704C37.8391 13.4958 37.7328 13.409 37.6581 13.3095C37.2599 12.7869 36.8623 12.2575 36.4641 11.7224C36.0784 11.1874 35.6923 10.6464 35.3066 10.0989C35.2319 9.99934 35.1256 9.91844 34.9887 9.85622C34.8519 9.78163 34.7211 9.74343 34.5968 9.74343H34.1866C34.0622 9.74343 33.9558 9.78734 33.8687 9.87445C33.7817 9.96153 33.7389 10.068 33.7389 10.1923V13.2161C33.7388 13.3403 33.6948 13.4458 33.6078 13.5328C33.5207 13.6199 33.4144 13.6638 33.29 13.6638H30.5089C30.3845 13.6638 30.2792 13.6199 30.1921 13.5328C30.1051 13.4458 30.0612 13.3404 30.0611 13.2161V0.447693C30.0611 0.323343 30.1051 0.218025 30.1921 0.130961C30.2792 0.0439154 30.3845 4.69616e-06 30.5089 -6.10352e-05H36.3149ZM34.1866 3.435C34.0622 3.435 33.9558 3.47777 33.8687 3.56488C33.7817 3.65198 33.7389 3.75834 33.7389 3.88275V5.86062C33.7389 5.98496 33.7818 6.09142 33.8687 6.17849C33.9558 6.2656 34.0622 6.30951 34.1866 6.30951H36.1656C36.3148 6.30946 36.47 6.28401 36.6316 6.23431C36.7932 6.17215 36.9426 6.08525 37.0793 5.97341C37.2161 5.84909 37.3284 5.69965 37.4154 5.52565C37.5025 5.35146 37.5465 5.14568 37.5465 4.90928C37.5465 4.78484 37.5211 4.64153 37.4713 4.47976C37.4339 4.30561 37.3599 4.14368 37.248 3.99441C37.1484 3.83263 37.0051 3.70203 36.8184 3.60248C36.6443 3.49056 36.4267 3.43506 36.1656 3.435H34.1866Z" fill="white"/>
<path d="M47.1121 4.68483C47.2364 4.68486 47.3418 4.72893 47.4289 4.81586C47.516 4.90297 47.5599 5.00928 47.5599 5.13373V13.2161C47.5598 13.3404 47.5159 13.4458 47.4289 13.5328C47.3418 13.6199 47.2365 13.6638 47.1121 13.6638H44.3972C44.2603 13.6638 44.1482 13.6199 44.0611 13.5328C43.9866 13.4458 43.9495 13.3403 43.9495 13.2161V5.13373C43.9495 5.00929 43.9865 4.90296 44.0611 4.81586C44.1482 4.72875 44.2603 4.68483 44.3972 4.68483H47.1121Z" fill="white"/>
<path d="M47.5611 1.8083C47.5611 2.80702 46.7515 3.61664 45.7527 3.61664C44.754 3.61664 43.9444 2.80702 43.9444 1.8083C43.9444 0.809588 44.754 -3.05176e-05 45.7527 -3.05176e-05C46.7515 -3.05176e-05 47.5611 0.809588 47.5611 1.8083Z" fill="white"/>
</g>
<defs>
<clipPath id="clip0_242_15">
<rect width="48" height="14" fill="white"/>
</clipPath>
</defs>
</svg>
