<svg width="48" height="14" viewBox="0 0 48 14" fill="none" xmlns="http://www.w3.org/2000/svg">
<g clip-path="url(#clip0_242_901)">
<path d="M3.40648 1.78535e-05C3.53093 1.78535e-05 3.64995 0.0439285 3.76195 0.13104C3.88617 0.205647 3.98007 0.298329 4.04223 0.410174L7.32689 7.91489C7.38907 8.02672 7.47013 8.08232 7.56957 8.08238C7.66904 8.08238 7.75004 8.0267 7.81225 7.91489L11.0787 0.410174C11.1409 0.298244 11.2288 0.205671 11.3407 0.13104C11.465 0.0440372 11.589 0.000117749 11.7133 1.78535e-05H14.8122C14.949 1.78535e-05 15.0485 0.0557964 15.1107 0.167498C15.173 0.267054 15.1799 0.367584 15.1301 0.46714L9.43692 13.2538C9.3747 13.3657 9.28102 13.4652 9.15665 13.5523C9.04465 13.6269 8.92562 13.6639 8.80118 13.6639H6.31859C6.19443 13.6638 6.0702 13.6267 5.94603 13.5523C5.83411 13.4652 5.7462 13.3657 5.68399 13.2538L0.0466198 0.541196C-0.0155087 0.404388 -0.0155712 0.279442 0.0466198 0.167498C0.0964328 0.0556251 0.202805 1.78535e-05 0.364491 1.78535e-05H3.40648Z" fill="#0C0F14" fill-opacity="0.8"/>
<path d="M26.9497 0C27.0741 1.70858e-05 27.1793 0.043952 27.2664 0.131022C27.3535 0.218099 27.3974 0.323372 27.3975 0.447754V2.98617C27.3975 3.11061 27.3535 3.21692 27.2664 3.30404C27.1794 3.39091 27.074 3.43504 26.9497 3.43506H21.1449C21.0205 3.43506 20.9141 3.47793 20.827 3.56494C20.7399 3.65205 20.696 3.75837 20.696 3.88281V4.66667C20.696 4.79095 20.7401 4.89636 20.827 4.9834C20.9141 5.07051 21.0204 5.11442 21.1449 5.11442H26.2034C26.3277 5.11453 26.4332 5.15844 26.5202 5.24544C26.6072 5.33245 26.6511 5.43792 26.6512 5.56217V8.13818C26.6512 8.26263 26.6073 8.36894 26.5202 8.45605C26.4332 8.54296 26.3276 8.58696 26.2034 8.58708H21.1449C21.0205 8.58708 20.9141 8.62994 20.827 8.71696C20.7399 8.80407 20.696 8.91039 20.696 9.03483V9.74349C20.696 9.86793 20.7399 9.97425 20.827 10.0614C20.9141 10.1484 21.0204 10.1924 21.1449 10.1924H26.9497C27.0739 10.1924 27.1794 10.2354 27.2664 10.3223C27.3535 10.4094 27.3975 10.5157 27.3975 10.6401V13.2161C27.3974 13.3405 27.3535 13.4458 27.2664 13.5329C27.1794 13.6199 27.0741 13.6639 26.9497 13.6639H17.4478C17.3235 13.6638 17.218 13.6199 17.131 13.5329C17.0441 13.4459 17.0001 13.3404 17 13.2161V0.447754C17 0.323467 17.0441 0.218061 17.131 0.131022C17.218 0.0440382 17.3235 0.000127317 17.4478 0H26.9497Z" fill="#0C0F14" fill-opacity="0.8"/>
<path fill-rule="evenodd" clip-rule="evenodd" d="M36.3149 0C37.0365 4.3005e-05 37.7024 0.124852 38.3121 0.373698C38.9217 0.610134 39.4386 0.945398 39.8616 1.38086C40.297 1.81633 40.6323 2.33316 40.8687 2.93034C41.1176 3.52767 41.2424 4.18756 41.2424 4.90934C41.2424 5.30735 41.1926 5.70534 41.0932 6.10335C41.0061 6.48907 40.8754 6.85668 40.7013 7.20508C40.527 7.55352 40.3213 7.87133 40.0849 8.15755C39.8485 8.43113 39.5813 8.66141 39.2828 8.84798C39.1832 8.92265 39.1151 9.01626 39.0777 9.12825C39.0529 9.22774 39.0772 9.32727 39.1518 9.42676C39.6246 10.0489 40.1228 10.6893 40.6454 11.3488C41.1681 12.0084 41.635 12.6128 42.0457 13.1603C42.12 13.2597 42.1387 13.3722 42.1015 13.4964C42.0641 13.6081 41.9829 13.6638 41.8588 13.6639H38.3861C38.2618 13.6638 38.1251 13.6326 37.976 13.5705C37.8391 13.4958 37.7328 13.4091 37.6581 13.3096C37.2599 12.7869 36.8623 12.2576 36.4641 11.7225C36.0784 11.1875 35.6923 10.6464 35.3066 10.099C35.2319 9.9994 35.1256 9.9185 34.9887 9.85628C34.8519 9.78169 34.7211 9.74349 34.5968 9.74349H34.1866C34.0622 9.74349 33.9558 9.7874 33.8687 9.87451C33.7817 9.96159 33.7389 10.068 33.7389 10.1924V13.2161C33.7388 13.3404 33.6948 13.4459 33.6078 13.5329C33.5207 13.62 33.4144 13.6639 33.29 13.6639H30.5089C30.3845 13.6638 30.2792 13.6199 30.1921 13.5329C30.1051 13.4458 30.0612 13.3405 30.0611 13.2161V0.447754C30.0611 0.323404 30.1051 0.218086 30.1921 0.131022C30.2792 0.0439764 30.3845 6.57313e-05 30.5089 0H36.3149ZM34.1866 3.43506C34.0622 3.43506 33.9558 3.47783 33.8687 3.56494C33.7817 3.65204 33.7389 3.7584 33.7389 3.88281V5.86068C33.7389 5.98502 33.7818 6.09148 33.8687 6.17855C33.9558 6.26566 34.0622 6.30957 34.1866 6.30957H36.1656C36.3148 6.30952 36.47 6.28407 36.6316 6.23438C36.7932 6.17221 36.9426 6.08531 37.0793 5.97347C37.2161 5.84915 37.3284 5.69971 37.4154 5.52572C37.5025 5.35152 37.5465 5.14574 37.5465 4.90934C37.5465 4.7849 37.5211 4.64159 37.4713 4.47982C37.4339 4.30567 37.3599 4.14374 37.248 3.99447C37.1484 3.83269 37.0051 3.70209 36.8184 3.60254C36.6443 3.49062 36.4267 3.43512 36.1656 3.43506H34.1866Z" fill="#0C0F14" fill-opacity="0.8"/>
<path d="M47.1121 4.6849C47.2364 4.68492 47.3418 4.72899 47.4289 4.81592C47.516 4.90303 47.5599 5.00934 47.5599 5.13379V13.2161C47.5598 13.3405 47.5159 13.4458 47.4289 13.5329C47.3418 13.6199 47.2365 13.6639 47.1121 13.6639H44.3972C44.2603 13.6639 44.1482 13.62 44.0611 13.5329C43.9866 13.4459 43.9495 13.3404 43.9495 13.2161V5.13379C43.9495 5.00936 43.9865 4.90302 44.0611 4.81592C44.1482 4.72881 44.2603 4.6849 44.3972 4.6849H47.1121Z" fill="#0C0F14" fill-opacity="0.8"/>
<path d="M47.5611 1.80833C47.5611 2.80705 46.7515 3.61667 45.7527 3.61667C44.754 3.61667 43.9444 2.80705 43.9444 1.80833C43.9444 0.809618 44.754 0 45.7527 0C46.7515 0 47.5611 0.809618 47.5611 1.80833Z" fill="#391BE2"/>
</g>
<defs>
<clipPath id="clip0_242_901">
<rect width="48" height="14" fill="white"/>
</clipPath>
</defs>
</svg>
