<svg width="20" height="20" viewBox="0 0 20 20" fill="none" xmlns="http://www.w3.org/2000/svg">
<g clip-path="url(#clip0_323_3314)">
<path fill-rule="evenodd" clip-rule="evenodd" d="M7.8375 2.41435C8.417 1.92055 9.14808 1.64001 9.90916 1.61939C10.6702 1.59877 11.4154 1.83931 12.0208 2.30101L12.1625 2.41435L12.4758 2.68101C12.7039 2.87571 12.9803 3.00526 13.2758 3.05601L13.4242 3.07435L13.835 3.10768C14.5961 3.1684 15.3132 3.48855 15.8665 4.01458C16.4199 4.54062 16.7759 5.24066 16.875 5.99768L16.8925 6.16435L16.9258 6.57601C16.9494 6.87461 17.0531 7.16133 17.2258 7.40601L17.3175 7.52435L17.5858 7.83768C18.0796 8.41718 18.3602 9.14827 18.3808 9.90934C18.4014 10.6704 18.1609 11.4156 17.6992 12.021L17.5858 12.1627L17.3183 12.476C17.1236 12.7041 16.9941 12.9805 16.9433 13.276L16.925 13.4243L16.8925 13.8352C16.8318 14.5962 16.5116 15.3134 15.9856 15.8667C15.4596 16.4201 14.7595 16.7761 14.0025 16.8752L13.835 16.8927L13.4242 16.926C13.1256 16.9496 12.8388 17.0532 12.5942 17.226L12.4758 17.3185L12.1617 17.5852C11.5823 18.0791 10.8512 18.3598 10.0901 18.3806C9.32907 18.4013 8.58381 18.1609 7.97833 17.6993L7.8375 17.586L7.52416 17.3185C7.29609 17.1238 7.01971 16.9943 6.72416 16.9435L6.57583 16.926L6.165 16.8927C5.40394 16.832 4.68679 16.5118 4.13345 15.9858C3.58011 15.4597 3.22412 14.7597 3.125 14.0027L3.1075 13.836L3.07416 13.4243C3.05056 13.1257 2.94693 12.839 2.77416 12.5943L2.68166 12.476L2.41416 12.1618C1.92036 11.5823 1.63982 10.8513 1.6192 10.0902C1.59859 9.3291 1.83913 8.5839 2.30083 7.97851L2.41416 7.83768L2.68083 7.52435C2.87552 7.29627 3.00508 7.01989 3.05583 6.72435L3.07416 6.57601L3.1075 6.16518C3.16822 5.40412 3.48836 4.68697 4.0144 4.13363C4.54044 3.58029 5.24048 3.2243 5.9975 3.12518L6.16416 3.10768L6.57583 3.07435C6.87443 3.05075 7.16115 2.94711 7.40583 2.77435L7.52416 2.68185L7.8375 2.41435ZM12.0833 10.8335C11.7518 10.8335 11.4339 10.9652 11.1994 11.1996C10.965 11.434 10.8333 11.752 10.8333 12.0835C10.8333 12.415 10.965 12.733 11.1994 12.9674C11.4339 13.2018 11.7518 13.3335 12.0833 13.3335C12.4149 13.3335 12.7328 13.2018 12.9672 12.9674C13.2016 12.733 13.3333 12.415 13.3333 12.0835C13.3333 11.752 13.2016 11.434 12.9672 11.1996C12.7328 10.9652 12.4149 10.8335 12.0833 10.8335ZM11.9108 6.91101L6.91083 11.911C6.83124 11.9879 6.76775 12.0798 6.72408 12.1815C6.6804 12.2832 6.65742 12.3925 6.65646 12.5032C6.65549 12.6138 6.67658 12.7236 6.71848 12.826C6.76038 12.9284 6.82226 13.0214 6.9005 13.0997C6.97875 13.1779 7.07179 13.2398 7.1742 13.2817C7.27662 13.3236 7.38635 13.3447 7.497 13.3437C7.60765 13.3428 7.717 13.3198 7.81867 13.2761C7.92034 13.2324 8.01229 13.1689 8.08916 13.0893L13.0892 8.08935C13.241 7.93218 13.325 7.72168 13.3231 7.50318C13.3212 7.28468 13.2335 7.07567 13.079 6.92116C12.9245 6.76666 12.7155 6.67902 12.497 6.67712C12.2785 6.67522 12.068 6.75921 11.9108 6.91101ZM7.91666 6.66685C7.58514 6.66685 7.2672 6.79854 7.03278 7.03296C6.79836 7.26738 6.66666 7.58533 6.66666 7.91685C6.66666 8.24837 6.79836 8.56631 7.03278 8.80073C7.2672 9.03515 7.58514 9.16685 7.91666 9.16685C8.24818 9.16685 8.56613 9.03515 8.80055 8.80073C9.03497 8.56631 9.16666 8.24837 9.16666 7.91685C9.16666 7.58533 9.03497 7.26738 8.80055 7.03296C8.56613 6.79854 8.24818 6.66685 7.91666 6.66685Z" fill="#9BA2B1" fill-opacity="0.6"/>
</g>
<defs>
<clipPath id="clip0_323_3314">
<rect width="20" height="20" fill="white"/>
</clipPath>
</defs>
</svg>
