<svg width="16" height="16" viewBox="0 0 16 16" fill="none" xmlns="http://www.w3.org/2000/svg">
<g clip-path="url(#clip0_501_637)">
<path d="M7.28001 1.91205C7.35337 1.78615 7.45846 1.6817 7.5848 1.6091C7.71113 1.5365 7.8543 1.49829 8.00001 1.49829C8.14572 1.49829 8.28888 1.5365 8.41521 1.6091C8.54155 1.6817 8.64664 1.78615 8.72001 1.91205L10.5833 5.11071L14.202 5.89471C14.3443 5.92565 14.4761 5.99335 14.5841 6.09107C14.6921 6.18879 14.7727 6.31312 14.8176 6.45166C14.8626 6.59021 14.8705 6.73812 14.8405 6.88066C14.8105 7.0232 14.7437 7.15539 14.6467 7.26405L12.18 10.0247L12.5533 13.708C12.5681 13.8531 12.5445 13.9994 12.485 14.1325C12.4254 14.2656 12.332 14.3807 12.2141 14.4664C12.0962 14.5521 11.9578 14.6054 11.8128 14.6209C11.6679 14.6363 11.5214 14.6135 11.388 14.5547L8.00001 13.0614L4.61201 14.5547C4.47862 14.6135 4.33213 14.6363 4.18717 14.6209C4.04222 14.6054 3.90386 14.5521 3.78592 14.4664C3.66798 14.3807 3.57458 14.2656 3.51505 14.1325C3.45552 13.9994 3.43194 13.8531 3.44667 13.708L3.82001 10.0247L1.35334 7.26471C1.25616 7.15606 1.18918 7.02382 1.15908 6.88119C1.12899 6.73856 1.13683 6.59053 1.18183 6.45188C1.22684 6.31323 1.30742 6.18882 1.41554 6.09105C1.52366 5.99328 1.65554 5.92558 1.79801 5.89471L5.41667 5.11071L7.28001 1.91205Z" fill="#391BE2" fill-opacity="0.8"/>
</g>
<defs>
<clipPath id="clip0_501_637">
<rect width="16" height="16" fill="white"/>
</clipPath>
</defs>
</svg>
