<svg width="25" height="24" viewBox="0 0 25 24" fill="none" xmlns="http://www.w3.org/2000/svg">
<g clip-path="url(#clip0_482_8135)">
<path d="M15.293 3C15.6176 3 15.9334 3.10527 16.193 3.3C15.6578 3.55921 15.2117 3.97165 14.9113 4.48492C14.611 4.9982 14.47 5.58916 14.5062 6.18274C14.5424 6.77633 14.7542 7.34576 15.1148 7.81871C15.4753 8.29166 15.9682 8.64679 16.531 8.839L16.909 8.969C17.0534 9.01827 17.1846 9.09994 17.2926 9.20776C17.4006 9.31557 17.4825 9.44666 17.532 9.591L17.661 9.969C17.821 10.4378 18.0947 10.8597 18.4575 11.197C18.8203 11.5343 19.261 11.7765 19.7403 11.902C20.2195 12.0275 20.7223 12.0323 21.2039 11.9161C21.6855 11.7999 22.1307 11.5662 22.5 11.236V19C22.5 19.5304 22.2893 20.0391 21.9142 20.4142C21.5391 20.7893 21.0304 21 20.5 21H4.5C3.96957 21 3.46086 20.7893 3.08579 20.4142C2.71071 20.0391 2.5 19.5304 2.5 19V7C2.5 6.46957 2.71071 5.96086 3.08579 5.58579C3.46086 5.21071 3.96957 5 4.5 5H7.086L8.646 3.44C8.78527 3.30055 8.95066 3.18992 9.13272 3.11442C9.31477 3.03892 9.50991 3.00004 9.707 3H15.293ZM12.5 7.5C11.1739 7.5 9.90215 8.02678 8.96447 8.96447C8.02678 9.90215 7.5 11.1739 7.5 12.5C7.5 13.8261 8.02678 15.0979 8.96447 16.0355C9.90215 16.9732 11.1739 17.5 12.5 17.5C13.8261 17.5 15.0979 16.9732 16.0355 16.0355C16.9732 15.0979 17.5 13.8261 17.5 12.5C17.5 11.1739 16.9732 9.90215 16.0355 8.96447C15.0979 8.02678 13.8261 7.5 12.5 7.5ZM12.5 9.5C12.894 9.5 13.2841 9.5776 13.6481 9.72836C14.012 9.87913 14.3427 10.1001 14.6213 10.3787C14.8999 10.6573 15.1209 10.988 15.2716 11.3519C15.4224 11.7159 15.5 12.106 15.5 12.5C15.5 12.894 15.4224 13.2841 15.2716 13.6481C15.1209 14.012 14.8999 14.3427 14.6213 14.6213C14.3427 14.8999 14.012 15.1209 13.6481 15.2716C13.2841 15.4224 12.894 15.5 12.5 15.5C11.7044 15.5 10.9413 15.1839 10.3787 14.6213C9.81607 14.0587 9.5 13.2956 9.5 12.5C9.5 11.7044 9.81607 10.9413 10.3787 10.3787C10.9413 9.81607 11.7044 9.5 12.5 9.5ZM20.5 2C20.6871 2 20.8704 2.05248 21.0292 2.15147C21.1879 2.25046 21.3157 2.392 21.398 2.56L21.446 2.677L21.576 3.055C21.7132 3.45718 21.9343 3.82563 22.2246 4.13594C22.5149 4.44625 22.8678 4.69135 23.26 4.855L23.445 4.925L23.823 5.054C24.0102 5.11786 24.1742 5.2358 24.2944 5.3929C24.4146 5.54999 24.4854 5.7392 24.4981 5.93658C24.5107 6.13396 24.4645 6.33065 24.3654 6.50178C24.2662 6.67291 24.1185 6.8108 23.941 6.898L23.823 6.946L23.445 7.076C23.0428 7.2132 22.6744 7.43428 22.3641 7.72459C22.0537 8.01491 21.8086 8.36783 21.645 8.76L21.575 8.945L21.446 9.323C21.382 9.51014 21.264 9.6741 21.1068 9.79416C20.9497 9.91423 20.7605 9.98499 20.5631 9.99752C20.3657 10.01 20.1691 9.96376 19.998 9.86452C19.8269 9.76528 19.6891 9.61755 19.602 9.44L19.554 9.323L19.424 8.945C19.2868 8.54282 19.0657 8.17437 18.7754 7.86406C18.4851 7.55375 18.1322 7.30865 17.74 7.145L17.555 7.075L17.177 6.946C16.9898 6.88214 16.8258 6.7642 16.7056 6.6071C16.5854 6.45001 16.5146 6.2608 16.5019 6.06342C16.4893 5.86604 16.5355 5.66935 16.6346 5.49822C16.7338 5.32709 16.8815 5.1892 17.059 5.102L17.177 5.054L17.555 4.924C17.9572 4.7868 18.3256 4.56572 18.6359 4.27541C18.9463 3.98509 19.1914 3.63217 19.355 3.24L19.425 3.055L19.554 2.677C19.6214 2.47959 19.7488 2.30818 19.9184 2.18679C20.0881 2.06539 20.2914 2.00008 20.5 2Z" fill="white"/>
</g>
<defs>
<clipPath id="clip0_482_8135">
<rect width="24" height="24" fill="white" transform="translate(0.5)"/>
</clipPath>
</defs>
</svg>
