<svg width="25" height="24" viewBox="0 0 25 24" fill="none" xmlns="http://www.w3.org/2000/svg">
<path d="M19.75 5.71429C20.0594 5.71429 20.3125 5.97143 20.3125 6.28571V17.7071L20.1367 17.475L15.3555 11.1893C15.1973 10.9786 14.9477 10.8571 14.6875 10.8571C14.4273 10.8571 14.1812 10.9786 14.0195 11.1893L11.1016 15.025L10.0293 13.5C9.87109 13.275 9.61797 13.1429 9.34375 13.1429C9.06953 13.1429 8.81641 13.275 8.6582 13.5036L5.8457 17.5036L5.6875 17.725V6.28571C5.6875 5.97143 5.94062 5.71429 6.25 5.71429H19.75ZM6.25 4C5.00898 4 4 5.025 4 6.28571V17.7143C4 18.975 5.00898 20 6.25 20H19.75C20.991 20 22 18.975 22 17.7143V6.28571C22 5.025 20.991 4 19.75 4H6.25ZM9.0625 10.8571C9.28411 10.8571 9.50354 10.8128 9.70828 10.7267C9.91302 10.6405 10.099 10.5142 10.2557 10.355C10.4124 10.1959 10.5367 10.0069 10.6215 9.79889C10.7064 9.5909 10.75 9.36798 10.75 9.14286C10.75 8.91773 10.7064 8.69482 10.6215 8.48683C10.5367 8.27884 10.4124 8.08986 10.2557 7.93067C10.099 7.77149 9.91302 7.64521 9.70828 7.55906C9.50354 7.47291 9.28411 7.42857 9.0625 7.42857C8.84089 7.42857 8.62146 7.47291 8.41672 7.55906C8.21198 7.64521 8.02596 7.77149 7.86926 7.93067C7.71256 8.08986 7.58826 8.27884 7.50345 8.48683C7.41865 8.69482 7.375 8.91773 7.375 9.14286C7.375 9.36798 7.41865 9.5909 7.50345 9.79889C7.58826 10.0069 7.71256 10.1959 7.86926 10.355C8.02596 10.5142 8.21198 10.6405 8.41672 10.7267C8.62146 10.8128 8.84089 10.8571 9.0625 10.8571Z" fill="#9BA2B1"/>
</svg>
