<svg width="24" height="21" viewBox="0 0 24 21" fill="#ffffff" xmlns="http://www.w3.org/2000/svg">
<path d="M14.0257 1.25008C14.3773 1.25008 14.7194 1.36412 15.0007 1.57508C14.4209 1.85589 13.9376 2.3027 13.6122 2.85875C13.2869 3.4148 13.1341 4.055 13.1733 4.69805C13.2126 5.34111 13.4421 5.95799 13.8326 6.47035C14.2232 6.98271 14.7572 7.36744 15.3669 7.57566L15.7764 7.7165C15.9328 7.76988 16.075 7.85835 16.192 7.97515C16.309 8.09195 16.3977 8.23396 16.4513 8.39033L16.591 8.79983C16.7644 9.30772 17.0609 9.76477 17.4539 10.1302C17.847 10.4956 18.3244 10.758 18.8436 10.8939C19.3627 11.0298 19.9075 11.0351 20.4292 10.9092C20.9509 10.7833 21.4333 10.5302 21.8333 10.1724V18.5834C21.8333 19.1581 21.605 19.7092 21.1987 20.1155C20.7924 20.5218 20.2413 20.7501 19.6666 20.7501H2.33329C1.75866 20.7501 1.20756 20.5218 0.801228 20.1155C0.394899 19.7092 0.166626 19.1581 0.166626 18.5834V5.58342C0.166626 5.00878 0.394899 4.45768 0.801228 4.05135C1.20756 3.64502 1.75866 3.41675 2.33329 3.41675H5.13479L6.82479 1.72675C6.97567 1.57568 7.15485 1.45583 7.35207 1.37404C7.54929 1.29225 7.7607 1.25013 7.97421 1.25008H14.0257ZM11 6.12508C9.56337 6.12508 8.18562 6.69576 7.1698 7.71159C6.15398 8.72741 5.58329 10.1052 5.58329 11.5417C5.58329 12.9783 6.15398 14.3561 7.1698 15.3719C8.18562 16.3877 9.56337 16.9584 11 16.9584C12.4365 16.9584 13.8143 16.3877 14.8301 15.3719C15.8459 14.3561 16.4166 12.9783 16.4166 11.5417C16.4166 10.1052 15.8459 8.72741 14.8301 7.71159C13.8143 6.69576 12.4365 6.12508 11 6.12508ZM11 8.29175C11.4268 8.29175 11.8494 8.37581 12.2437 8.53914C12.638 8.70247 12.9963 8.94186 13.2981 9.24365C13.5998 9.54544 13.8392 9.90372 14.0026 10.298C14.1659 10.6923 14.25 11.115 14.25 11.5417C14.25 11.9685 14.1659 12.3912 14.0026 12.7855C13.8392 13.1798 13.5998 13.5381 13.2981 13.8398C12.9963 14.1416 12.638 14.381 12.2437 14.5444C11.8494 14.7077 11.4268 14.7917 11 14.7917C10.138 14.7917 9.31136 14.4493 8.70186 13.8398C8.09237 13.2304 7.74996 12.4037 7.74996 11.5417C7.74996 10.6798 8.09237 9.85314 8.70186 9.24365C9.31136 8.63416 10.138 8.29175 11 8.29175ZM19.6666 0.166748C19.8693 0.166748 20.0679 0.223599 20.2399 0.330842C20.4118 0.438085 20.5503 0.591417 20.6395 0.773415L20.6915 0.900165L20.8323 1.30966C20.9809 1.74536 21.2204 2.14452 21.5349 2.48069C21.8494 2.81686 22.2318 3.08238 22.6566 3.25966L22.857 3.3355L23.2665 3.47525C23.4693 3.54443 23.6471 3.6722 23.7772 3.84239C23.9074 4.01258 23.9842 4.21754 23.9979 4.43137C24.0116 4.6452 23.9615 4.85829 23.8541 5.04368C23.7467 5.22907 23.5867 5.37845 23.3944 5.47291L23.2665 5.52492L22.857 5.66575C22.4213 5.81438 22.0222 6.05388 21.686 6.36839C21.3499 6.6829 21.0843 7.06523 20.907 7.49008L20.8312 7.6905L20.6915 8.1C20.6222 8.30273 20.4943 8.48036 20.324 8.61043C20.1538 8.74049 19.9488 8.81716 19.735 8.83072C19.5211 8.84429 19.3081 8.79415 19.1228 8.68665C18.9375 8.57914 18.7882 8.41909 18.6938 8.22675L18.6418 8.1L18.501 7.6905C18.3523 7.2548 18.1128 6.85565 17.7983 6.51948C17.4838 6.18331 17.1015 5.91779 16.6766 5.7405L16.4762 5.66466L16.0667 5.52492C15.8639 5.45573 15.6862 5.32797 15.556 5.15778C15.4258 4.98759 15.3491 4.78262 15.3354 4.56879C15.3217 4.35496 15.3717 4.14188 15.4792 3.95648C15.5866 3.77109 15.7466 3.62172 15.9389 3.52725L16.0667 3.47525L16.4762 3.33441C16.9119 3.18578 17.3111 2.94628 17.6472 2.63177C17.9834 2.31727 18.2489 1.93493 18.4262 1.51008L18.502 1.30966L18.6418 0.900165C18.7148 0.686301 18.8528 0.500615 19.0366 0.369103C19.2204 0.237592 19.4407 0.166838 19.6666 0.166748Z" fill="#ffffff"/>
</svg>
