<svg width="20" height="21" viewBox="0 0 20 21" fill="none" xmlns="http://www.w3.org/2000/svg">
<path fill-rule="evenodd" clip-rule="evenodd" d="M0.5 2.5C0.5 1.96957 0.710714 1.46086 1.08579 1.08579C1.46086 0.710715 1.96957 0.500002 2.5 0.500002H4.5C4.864 0.500002 5.206 0.597002 5.5 0.768002C5.80385 0.592007 6.14886 0.499544 6.5 0.500002H8.5C9.227 0.500002 9.864 0.888002 10.214 1.469C10.424 1.301 10.67 1.173 10.946 1.099L12.878 0.582002C13.1317 0.513945 13.3963 0.496534 13.6568 0.530766C13.9172 0.564997 14.1684 0.650199 14.3959 0.781505C14.6234 0.912812 14.8228 1.08765 14.9828 1.29604C15.1427 1.50442 15.26 1.74227 15.328 1.996L19.468 17.451C19.5361 17.7047 19.5535 17.9694 19.5192 18.2298C19.485 18.4902 19.3998 18.7414 19.2685 18.9689C19.1372 19.1964 18.9624 19.3958 18.754 19.5558C18.5456 19.7157 18.3077 19.833 18.054 19.901L16.122 20.418C15.8683 20.4861 15.6037 20.5035 15.3432 20.4692C15.0828 20.435 14.8316 20.3498 14.6041 20.2185C14.3766 20.0872 14.1772 19.9124 14.0172 19.704C13.8573 19.4956 13.74 19.2577 13.672 19.004L10.5 7.163V18.5C10.5 19.0304 10.2893 19.5391 9.91421 19.9142C9.53914 20.2893 9.03043 20.5 8.5 20.5H6.5C6.14886 20.5005 5.80385 20.408 5.5 20.232C5.19615 20.408 4.85114 20.5005 4.5 20.5H2.5C1.96957 20.5 1.46086 20.2893 1.08579 19.9142C0.710714 19.5391 0.5 19.0304 0.5 18.5V2.5ZM2.5 2.5H4.5V18.5H2.5V2.5ZM8.5 18.5H6.5V2.5H8.5V18.5ZM11.464 3.031L13.395 2.514L17.537 17.969L15.605 18.486L11.464 3.031Z" fill="#E7E9EF"/>
</svg>
