<svg width="18" height="20" viewBox="0 0 18 20" fill="none" xmlns="http://www.w3.org/2000/svg">
<path fill-rule="evenodd" clip-rule="evenodd" d="M7.8 1.15C8.14619 0.890356 8.56726 0.75 9 0.75C9.43274 0.75 9.85381 0.890356 10.2 1.15L17.2 6.4C17.4484 6.58629 17.65 6.82786 17.7889 7.10557C17.9277 7.38328 18 7.68951 18 8V17.5C18 18.0304 17.7893 18.5391 17.4142 18.9142C17.0391 19.2893 16.5304 19.5 16 19.5H11.1C10.8083 19.5 10.5285 19.3841 10.3222 19.1778C10.1159 18.9715 10 18.6917 10 18.4V12.5C10 12.2348 9.89464 11.9804 9.70711 11.7929C9.51957 11.6054 9.26522 11.5 9 11.5C8.73478 11.5 8.48043 11.6054 8.29289 11.7929C8.10536 11.9804 8 12.2348 8 12.5V18.4C8 18.5445 7.97155 18.6875 7.91627 18.821C7.86099 18.9544 7.77996 19.0757 7.67782 19.1778C7.57567 19.28 7.45441 19.361 7.32095 19.4163C7.18749 19.4715 7.04445 19.5 6.9 19.5H2C1.46957 19.5 0.960859 19.2893 0.585786 18.9142C0.210714 18.5391 0 18.0304 0 17.5V8C0 7.68951 0.0722902 7.38328 0.211146 7.10557C0.350001 6.82786 0.551608 6.58629 0.8 6.4L7.8 1.15ZM9 2.75L2 8V17.5H6V12.5C6 11.7044 6.31607 10.9413 6.87868 10.3787C7.44129 9.81607 8.20435 9.5 9 9.5C9.79565 9.5 10.5587 9.81607 11.1213 10.3787C11.6839 10.9413 12 11.7044 12 12.5V17.5H16V8L9 2.75Z" fill="#DBDFE4"/>
</svg>
