<svg width="18" height="21" viewBox="0 0 18 21" fill="none" xmlns="http://www.w3.org/2000/svg">
<path fill-rule="evenodd" clip-rule="evenodd" d="M13 12.5C14.2885 12.5001 15.5272 12.9975 16.4578 13.8887C17.3884 14.7798 17.9391 15.9958 17.995 17.283L18 17.5V18.5C18.0002 19.0046 17.8096 19.4906 17.4665 19.8605C17.1234 20.2305 16.6532 20.4572 16.15 20.495L16 20.5H2C1.49542 20.5002 1.00943 20.3096 0.639452 19.9665C0.269471 19.6234 0.0428433 19.1532 0.00500011 18.65L0 18.5V17.5C7.44425e-05 16.2115 0.497542 14.9728 1.38866 14.0422C2.27978 13.1116 3.49575 12.5609 4.783 12.505L5 12.5H13ZM13 14.5H5C4.23479 14.5 3.49849 14.7923 2.94174 15.3173C2.38499 15.8422 2.04989 16.5601 2.005 17.324L2 17.5V18.5H16V17.5C16 16.7348 15.7077 15.9985 15.1827 15.4417C14.6578 14.885 13.9399 14.5499 13.176 14.505L13 14.5ZM9 0.5C10.3261 0.5 11.5979 1.02678 12.5355 1.96447C13.4732 2.90215 14 4.17392 14 5.5C14 6.82608 13.4732 8.09785 12.5355 9.03553C11.5979 9.97322 10.3261 10.5 9 10.5C7.67392 10.5 6.40215 9.97322 5.46447 9.03553C4.52678 8.09785 4 6.82608 4 5.5C4 4.17392 4.52678 2.90215 5.46447 1.96447C6.40215 1.02678 7.67392 0.5 9 0.5ZM9 2.5C8.60603 2.5 8.21593 2.5776 7.85195 2.72836C7.48797 2.87913 7.15726 3.1001 6.87868 3.37868C6.6001 3.65726 6.37913 3.98797 6.22836 4.35195C6.0776 4.71593 6 5.10603 6 5.5C6 5.89397 6.0776 6.28407 6.22836 6.64805C6.37913 7.01203 6.6001 7.34274 6.87868 7.62132C7.15726 7.8999 7.48797 8.12087 7.85195 8.27164C8.21593 8.4224 8.60603 8.5 9 8.5C9.79565 8.5 10.5587 8.18393 11.1213 7.62132C11.6839 7.05871 12 6.29565 12 5.5C12 4.70435 11.6839 3.94129 11.1213 3.37868C10.5587 2.81607 9.79565 2.5 9 2.5Z" fill="#E7E9EF"/>
</svg>
