<svg width="17" height="21" viewBox="0 0 17 21" fill="none" xmlns="http://www.w3.org/2000/svg">
<path fill-rule="evenodd" clip-rule="evenodd" d="M2.5 0.5C1.96957 0.5 1.46086 0.710714 1.08579 1.08579C0.710714 1.46086 0.5 1.96957 0.5 2.5V18.5C0.5 19.0304 0.710714 19.5391 1.08579 19.9142C1.46086 20.2893 1.96957 20.5 2.5 20.5H13.5C14.2956 20.5 15.0587 20.1839 15.6213 19.6213C16.1839 19.0587 16.5 18.2956 16.5 17.5V3.5C16.5 2.70435 16.1839 1.94129 15.6213 1.37868C15.0587 0.816071 14.2956 0.5 13.5 0.5H2.5ZM6.5 2.5H2.5V18.5H13.5C13.7652 18.5 14.0196 18.3946 14.2071 18.2071C14.3946 18.0196 14.5 17.7652 14.5 17.5V3.5C14.5 3.23478 14.3946 2.98043 14.2071 2.79289C14.0196 2.60536 13.7652 2.5 13.5 2.5H12.5V11.476C12.5 12.376 11.412 12.826 10.776 12.19L9.5 10.914L8.224 12.19C7.588 12.826 6.5 12.376 6.5 11.476V2.5ZM10.5 2.5H8.5V9.086L8.786 8.8C8.9754 8.6107 9.23222 8.50436 9.5 8.50436C9.76778 8.50436 10.0246 8.6107 10.214 8.8L10.5 9.086V2.5Z" fill="#E7E9EF"/>
</svg>
