<svg width="18" height="20" viewBox="0 0 18 20" fill="none" xmlns="http://www.w3.org/2000/svg">
<path d="M10.2 1.15C9.85381 0.890356 9.43274 0.75 9 0.75C8.56726 0.75 8.14619 0.890356 7.8 1.15L0.8 6.4C0.551608 6.58629 0.350001 6.82786 0.211146 7.10557C0.0722902 7.38328 0 7.68951 0 8V17.5C0 18.0304 0.210714 18.5391 0.585786 18.9142C0.960859 19.2893 1.46957 19.5 2 19.5H5.9C6.19174 19.5 6.47153 19.3841 6.67782 19.1778C6.88411 18.9715 7 18.6917 7 18.4V13.5C7 12.9696 7.21071 12.4609 7.58579 12.0858C7.96086 11.7107 8.46957 11.5 9 11.5C9.53043 11.5 10.0391 11.7107 10.4142 12.0858C10.7893 12.4609 11 12.9696 11 13.5V18.4C11 18.6917 11.1159 18.9715 11.3222 19.1778C11.5285 19.3841 11.8083 19.5 12.1 19.5H16C16.5304 19.5 17.0391 19.2893 17.4142 18.9142C17.7893 18.5391 18 18.0304 18 17.5V8C18 7.68951 17.9277 7.38328 17.7889 7.10557C17.65 6.82786 17.4484 6.58629 17.2 6.4L10.2 1.15Z" fill="#0CE19A"/>
</svg>
