<svg width="18" height="20" viewBox="0 0 18 20" fill="none" xmlns="http://www.w3.org/2000/svg">
<path fill-rule="evenodd" clip-rule="evenodd" d="M0.255 2.167C0.129378 2.02033 0.0484398 1.84071 0.0217776 1.64944C-0.00488449 1.45817 0.0238473 1.26327 0.104568 1.08783C0.185288 0.912395 0.314613 0.763777 0.477216 0.659591C0.639819 0.555405 0.828882 0.50002 1.022 0.5H13.5C14.0909 0.5 14.6761 0.616396 15.2221 0.842542C15.768 1.06869 16.2641 1.40016 16.682 1.81802C17.0998 2.23588 17.4313 2.73196 17.6575 3.27792C17.8836 3.82389 18 4.40905 18 5C18 5.59095 17.8836 6.17611 17.6575 6.72208C17.4313 7.26804 17.0998 7.76412 16.682 8.18198C16.2641 8.59984 15.768 8.93131 15.2221 9.15746C14.6761 9.3836 14.0909 9.5 13.5 9.5H1.022C0.828882 9.49998 0.639819 9.4446 0.477216 9.34041C0.314613 9.23622 0.185288 9.0876 0.104568 8.91217C0.0238473 8.73673 -0.00488449 8.54183 0.0217776 8.35056C0.0484398 8.15929 0.129378 7.97967 0.255 7.833L1.009 6.953C1.47512 6.40925 1.73134 5.71669 1.73134 5.0005C1.73134 4.28431 1.47512 3.59175 1.009 3.048L0.255 2.167ZM0 15C0 13.8065 0.474106 12.6619 1.31802 11.818C2.16193 10.9741 3.30653 10.5 4.5 10.5H16.978C17.1711 10.5 17.3602 10.5554 17.5228 10.6596C17.6854 10.7638 17.8147 10.9124 17.8954 11.0878C17.9762 11.2633 18.0049 11.4582 17.9782 11.6494C17.9516 11.8407 17.8706 12.0203 17.745 12.167L16.99 13.047C16.5239 13.5907 16.2677 14.2833 16.2677 14.9995C16.2677 15.7157 16.5239 16.4083 16.99 16.952L17.745 17.832C17.8709 17.9787 17.9521 18.1584 17.979 18.3498C18.0058 18.5412 17.9771 18.7363 17.8964 18.912C17.8156 19.0876 17.6862 19.2363 17.5234 19.3406C17.3606 19.4448 17.1713 19.5001 16.978 19.5H4.5C3.30653 19.5 2.16193 19.0259 1.31802 18.182C0.474106 17.3381 0 16.1935 0 15Z" fill="#0CE19A"/>
</svg>
