<svg width="18" height="21" viewBox="0 0 18 21" fill="none" xmlns="http://www.w3.org/2000/svg">
<path d="M13 12.5C14.2885 12.5001 15.5272 12.9975 16.4578 13.8887C17.3884 14.7798 17.9391 15.9958 17.995 17.283L18 17.5V18.5C18.0002 19.0046 17.8096 19.4906 17.4665 19.8605C17.1234 20.2305 16.6532 20.4572 16.15 20.495L16 20.5H2C1.49542 20.5002 1.00943 20.3096 0.639452 19.9665C0.269471 19.6234 0.0428433 19.1532 0.00500011 18.65L0 18.5V17.5C7.44425e-05 16.2115 0.497542 14.9728 1.38866 14.0422C2.27978 13.1116 3.49575 12.5609 4.783 12.505L5 12.5H13ZM9 0.5C10.3261 0.5 11.5979 1.02678 12.5355 1.96447C13.4732 2.90215 14 4.17392 14 5.5C14 6.82608 13.4732 8.09785 12.5355 9.03553C11.5979 9.97322 10.3261 10.5 9 10.5C7.67392 10.5 6.40215 9.97322 5.46447 9.03553C4.52678 8.09785 4 6.82608 4 5.5C4 4.17392 4.52678 2.90215 5.46447 1.96447C6.40215 1.02678 7.67392 0.5 9 0.5Z" fill="#0CE19A"/>
</svg>
