<svg width="17" height="21" viewBox="0 0 17 21" fill="none" xmlns="http://www.w3.org/2000/svg">
<path d="M2.5 0.5C1.96957 0.5 1.46086 0.710714 1.08579 1.08579C0.710714 1.46086 0.5 1.96957 0.5 2.5V18.5C0.5 19.0304 0.710714 19.5391 1.08579 19.9142C1.46086 20.2893 1.96957 20.5 2.5 20.5H13.5C14.2956 20.5 15.0587 20.1839 15.6213 19.6213C16.1839 19.0587 16.5 18.2956 16.5 17.5V3.5C16.5 2.70435 16.1839 1.94129 15.6213 1.37868C15.0587 0.816071 14.2956 0.5 13.5 0.5H12.5V10.293C12.5 10.3919 12.4706 10.4886 12.4156 10.5709C12.3606 10.6531 12.2824 10.7172 12.191 10.755C12.0996 10.7928 11.999 10.8026 11.902 10.7832C11.8049 10.7638 11.7159 10.716 11.646 10.646L9.854 8.854C9.80755 8.80744 9.75238 8.77049 9.69163 8.74529C9.63089 8.72008 9.56577 8.70711 9.5 8.70711C9.43423 8.70711 9.36911 8.72008 9.30837 8.74529C9.24762 8.77049 9.19245 8.80744 9.146 8.854L7.354 10.646C7.28413 10.716 7.19505 10.7638 7.09804 10.7832C7.00102 10.8026 6.90043 10.7928 6.809 10.755C6.71757 10.7172 6.6394 10.6531 6.5844 10.5709C6.52939 10.4886 6.50002 10.3919 6.5 10.293V0.5H2.5Z" fill="#0CE19A"/>
</svg>
